<svg id="Layer_1" data-name="Layer 1" xmlns="http://www.w3.org/2000/svg" xmlns:xlink="http://www.w3.org/1999/xlink" viewBox="0 0 941.86 941.86"><defs><style>.cls-1{fill:#fff;}.cls-2{fill:#c00;}</style></defs><rect class="cls-1" width="941.86" height="941.86"/><image width="1200" height="848" transform="translate(-1095.79 48.5)" xlink:href="1200px-React-icon.svg.png"/><path class="cls-2" d="M728,515.21v56.46H830c20.9,0,56.77-15.29,58-58V491.82c0-36.49-29.94-58-58-58H779.14v-26.2H879.88V350.84H783.2c-25,0-58.33,20.59-58.33,59v19.65c0,38.36,33.06,58,58.33,58,70.17.32-16.85,0,48,0V514.9M181.54,501.49s54.58-4.68,54.58-75.17-66.12-77-66.12-77H50.85V571.67h59.89V518l51.77,53.65h88.58l-69.55-70.18ZM158.46,456H110.74V405.11h48s13.41,5,13.41,25.27S158.46,456,158.46,456ZM384,350.84H323.14c-43.35,0-58,39.3-58,58V571.67H326v-39H383v39h59V408.86c0-47.41-43.05-58-58-58ZM383,469.68H325.64v-54s0-12.17,19-12.17h20.9c16.84,0,17.16,12.17,17.16,12.17v54Zm86.71-118.84h63.31V571.67H469.74Zm152.2,163.75V350.84h-63V571.67H707.09V514.59Z"/></svg>